<?xml version="1.0" encoding="utf-8"?><!-- Uploaded to: SVG Repo, www.svgrepo.com, Generator: SVG Repo Mixer Tools -->
<svg width="800px" height="800px" viewBox="0 0 24 24" fill="none" xmlns="http://www.w3.org/2000/svg">
<path d="M4.09253 5.63644C4.91414 12.8995 11.1005 19.0859 18.3636 19.9075C19.3109 20.0146 20.1346 19.3271 20.3216 18.3922L20.7004 16.4979C20.8773 15.6135 20.4404 14.7202 19.6337 14.3168L18.3983 13.6992C17.5886 13.2943 16.6052 13.5264 16.062 14.2507C15.7082 14.7224 15.14 15.01 14.5962 14.782C12.7272 13.9986 10.0014 11.2728 9.21796 9.40381C8.99002 8.86004 9.27761 8.2918 9.7493 7.93802C10.4736 7.39483 10.7057 6.41142 10.3008 5.60168L9.68316 4.36632C9.27982 3.55963 8.38646 3.12271 7.50207 3.29959L5.60777 3.67845C4.67292 3.86542 3.98537 4.68912 4.09253 5.63644Z" stroke="#000000" stroke-width="2" stroke-linecap="round" stroke-linejoin="round"/>
</svg>