<?xml version="1.0" encoding="utf-8"?>
<svg width="599" height="572" viewBox="0 0 599 572" xmlns="http://www.w3.org/2000/svg">
<rect id="frame" x="0" y="0" width="599" height="572" fill="#ffffbf" stroke="none" stroke-width="0"/>

<!-- Association Sets -->
<g class="page_0_GmGQTbsb diagram_page" visibility="visible">
	<line x1="71" y1="177" x2="197" y2="177" stroke="#f46d43" stroke-width="2"/>
	<text x="118" y="194" fill="#4575b4" font-family="Verdana" font-size="12">1,1</text>
	<line x1="316" y1="303" x2="197" y2="177" stroke="#f46d43" stroke-width="2"/>
	<text x="245" y="266.63" fill="#4575b4" font-family="Verdana" font-size="12">0,N</text>
	<g>
		<path d="M204 152 a14 14 90 0 1 14 14 V177 h-42 V166 a14 14 90 0 1 14 -14" fill="#fdae61" stroke="#fdae61" stroke-width="0"/>
		<path d="M218 177 v11 a14 14 90 0 1 -14 14 H190 a14 14 90 0 1 -14 -14 V177 H42" fill="#fee090" stroke="#fee090" stroke-width="0"/>
		<rect x="176" y="152" width="42" height="50" fill="none" rx="14" stroke="#f46d43" stroke-width="2"/>
		<line x1="176" y1="177" x2="218" y2="177" stroke="#f46d43" stroke-width="1"/>
		<text x="184" y="169.75" fill="#000" font-family="Verdana" font-size="12">Sets</text>
	</g>
</g>

<!-- Association Writes(1) -->
<g class="page_0_GmGQTbsb diagram_page" visibility="visible">
	<line x1="316" y1="68" x2="316" y2="177" stroke="#f46d43" stroke-width="2"/>
	<text x="321" y="144" fill="#4575b4" font-family="Verdana" font-size="12">1,1</text>
	<line x1="316" y1="303" x2="316" y2="177" stroke="#f46d43" stroke-width="2"/>
	<text x="321" y="219" fill="#4575b4" font-family="Verdana" font-size="12">0,N</text>
	<g>
		<path d="M338 152 a14 14 90 0 1 14 14 V177 h-72 V166 a14 14 90 0 1 14 -14" fill="#fdae61" stroke="#fdae61" stroke-width="0"/>
		<path d="M352 177 v11 a14 14 90 0 1 -14 14 H294 a14 14 90 0 1 -14 -14 V177 H72" fill="#fee090" stroke="#fee090" stroke-width="0"/>
		<rect x="280" y="152" width="72" height="50" fill="none" rx="14" stroke="#f46d43" stroke-width="2"/>
		<line x1="280" y1="177" x2="352" y2="177" stroke="#f46d43" stroke-width="1"/>
		<text x="287" y="169.75" fill="#000" font-family="Verdana" font-size="12">Writes(1)</text>
	</g>
</g>

<!-- Association Writes(2) -->
<g class="page_0_GmGQTbsb diagram_page" visibility="visible">
	<line x1="539" y1="68" x2="420" y2="177" stroke="#f46d43" stroke-width="2"/>
	<text x="464" y="111.52" fill="#4575b4" font-family="Verdana" font-size="12">1,1</text>
	<line x1="316" y1="303" x2="420" y2="177" stroke="#f46d43" stroke-width="2"/>
	<text x="365" y="260.57" fill="#4575b4" font-family="Verdana" font-size="12">0,N</text>
	<g>
		<path d="M442 152 a14 14 90 0 1 14 14 V177 h-72 V166 a14 14 90 0 1 14 -14" fill="#fdae61" stroke="#fdae61" stroke-width="0"/>
		<path d="M456 177 v11 a14 14 90 0 1 -14 14 H398 a14 14 90 0 1 -14 -14 V177 H72" fill="#fee090" stroke="#fee090" stroke-width="0"/>
		<rect x="384" y="152" width="72" height="50" fill="none" rx="14" stroke="#f46d43" stroke-width="2"/>
		<line x1="384" y1="177" x2="456" y2="177" stroke="#f46d43" stroke-width="1"/>
		<text x="391" y="169.75" fill="#000" font-family="Verdana" font-size="12">Writes(2)</text>
	</g>
</g>

<!-- Association Is linked to(1) -->
<g class="page_0_GmGQTbsb diagram_page" visibility="visible">
	<line x1="539" y1="68" x2="539" y2="177" stroke="#f46d43" stroke-width="2"/>
	<text x="544" y="144" fill="#4575b4" font-family="Verdana" font-size="12">1,1</text>
	<line x1="316" y1="303" x2="539" y2="177" stroke="#f46d43" stroke-width="2"/>
	<text x="365" y="290.75" fill="#4575b4" font-family="Verdana" font-size="12">0,N</text>
	<g>
		<path d="M576 152 a14 14 90 0 1 14 14 V177 h-102 V166 a14 14 90 0 1 14 -14" fill="#fdae61" stroke="#fdae61" stroke-width="0"/>
		<path d="M590 177 v11 a14 14 90 0 1 -14 14 H502 a14 14 90 0 1 -14 -14 V177 H102" fill="#fee090" stroke="#fee090" stroke-width="0"/>
		<rect x="488" y="152" width="102" height="50" fill="none" rx="14" stroke="#f46d43" stroke-width="2"/>
		<line x1="488" y1="177" x2="590" y2="177" stroke="#f46d43" stroke-width="1"/>
		<text x="496" y="169.75" fill="#000" font-family="Verdana" font-size="12">Is linked to(1)</text>
	</g>
</g>

<!-- Association Is linked to(2) -->
<g class="page_0_GmGQTbsb diagram_page" visibility="visible">
	<line x1="71" y1="177" x2="71" y2="303" stroke="#f46d43" stroke-width="2"/>
	<text x="76" y="228" fill="#4575b4" font-family="Verdana" font-size="12">1,1</text>
	<line x1="71" y1="429" x2="71" y2="303" stroke="#f46d43" stroke-width="2"/>
	<text x="44" y="396" fill="#4575b4" font-family="Verdana" font-size="12">0,N</text>
	<g>
		<path d="M108 278 a14 14 90 0 1 14 14 V303 h-102 V292 a14 14 90 0 1 14 -14" fill="#fdae61" stroke="#fdae61" stroke-width="0"/>
		<path d="M122 303 v11 a14 14 90 0 1 -14 14 H34 a14 14 90 0 1 -14 -14 V303 H102" fill="#fee090" stroke="#fee090" stroke-width="0"/>
		<rect x="20" y="278" width="102" height="50" fill="none" rx="14" stroke="#f46d43" stroke-width="2"/>
		<line x1="20" y1="303" x2="122" y2="303" stroke="#f46d43" stroke-width="1"/>
		<text x="28" y="295.75" fill="#000" font-family="Verdana" font-size="12">Is linked to(2)</text>
	</g>
</g>

<!-- Association Participates -->
<g class="page_0_GmGQTbsb diagram_page" visibility="visible">
	<line x1="71" y1="429" x2="197" y2="303" stroke="#f46d43" stroke-width="2"/>
	<text x="76.07" y="396" fill="#4575b4" font-family="Verdana" font-size="12">2,N</text>
	<line x1="316" y1="303" x2="197" y2="303" stroke="#f46d43" stroke-width="2"/>
	<text x="245" y="320" fill="#4575b4" font-family="Verdana" font-size="12">0,N</text>
	<g>
		<path d="M226 278 a14 14 90 0 1 14 14 V303 h-86 V292 a14 14 90 0 1 14 -14" fill="#fdae61" stroke="#fdae61" stroke-width="0"/>
		<path d="M240 303 v11 a14 14 90 0 1 -14 14 H168 a14 14 90 0 1 -14 -14 V303 H86" fill="#fee090" stroke="#fee090" stroke-width="0"/>
		<rect x="154" y="278" width="86" height="50" fill="none" rx="14" stroke="#f46d43" stroke-width="2"/>
		<line x1="154" y1="303" x2="240" y2="303" stroke="#f46d43" stroke-width="1"/>
		<text x="162" y="295.75" fill="#000" font-family="Verdana" font-size="12">Participates</text>
	</g>
</g>

<!-- Association Blocks -->
<g class="page_0_GmGQTbsb diagram_page" visibility="visible">
	<path d="M316 303 C361.33 269.67 396 269.67 420 303" fill="none" stroke="#f46d43" stroke-width="2"/>
	<text x="365" y="298" fill="#4575b4" font-family="Verdana" font-size="12">0,N</text>
	<path d="M316 303 C361.33 336.33 396 336.33 420 303" fill="none" stroke="#f46d43" stroke-width="2"/>
	<text x="365" y="317" fill="#4575b4" font-family="Verdana" font-size="12">0,N</text>
	<g>
		<path d="M433 278 a14 14 90 0 1 14 14 V303 h-54 V292 a14 14 90 0 1 14 -14" fill="#fdae61" stroke="#fdae61" stroke-width="0"/>
		<path d="M447 303 v11 a14 14 90 0 1 -14 14 H407 a14 14 90 0 1 -14 -14 V303 H54" fill="#fee090" stroke="#fee090" stroke-width="0"/>
		<rect x="393" y="278" width="54" height="50" fill="none" rx="14" stroke="#f46d43" stroke-width="2"/>
		<line x1="393" y1="303" x2="447" y2="303" stroke="#f46d43" stroke-width="1"/>
		<text x="401" y="295.75" fill="#000" font-family="Verdana" font-size="12">Blocks</text>
	</g>
</g>

<!-- Association Sends -->
<g class="page_0_GmGQTbsb diagram_page" visibility="visible">
	<line x1="197" y1="521" x2="197" y2="429" stroke="#f46d43" stroke-width="2"/>
	<text x="202" y="479" fill="#4575b4" font-family="Verdana" font-size="12">1,1</text>
	<line x1="316" y1="303" x2="197" y2="429" stroke="#f46d43" stroke-width="2"/>
	<text x="245" y="348.37" fill="#4575b4" font-family="Verdana" font-size="12">0,N</text>
	<g>
		<path d="M209 404 a14 14 90 0 1 14 14 V429 h-52 V418 a14 14 90 0 1 14 -14" fill="#fdae61" stroke="#fdae61" stroke-width="0"/>
		<path d="M223 429 v11 a14 14 90 0 1 -14 14 H185 a14 14 90 0 1 -14 -14 V429 H52" fill="#fee090" stroke="#fee090" stroke-width="0"/>
		<rect x="171" y="404" width="52" height="50" fill="none" rx="14" stroke="#f46d43" stroke-width="2"/>
		<line x1="171" y1="429" x2="223" y2="429" stroke="#f46d43" stroke-width="1"/>
		<text x="178" y="421.75" fill="#000" font-family="Verdana" font-size="12">Sends</text>
	</g>
</g>

<!-- Association Makes -->
<g class="page_0_GmGQTbsb diagram_page" visibility="visible">
	<line x1="316" y1="521" x2="316" y2="429" stroke="#f46d43" stroke-width="2"/>
	<text x="321" y="471" fill="#4575b4" font-family="Verdana" font-size="12">1,1</text>
	<line x1="316" y1="303" x2="316" y2="429" stroke="#f46d43" stroke-width="2"/>
	<text x="321" y="396" fill="#4575b4" font-family="Verdana" font-size="12">0,N</text>
	<g>
		<path d="M329 404 a14 14 90 0 1 14 14 V429 h-54 V418 a14 14 90 0 1 14 -14" fill="#fdae61" stroke="#fdae61" stroke-width="0"/>
		<path d="M343 429 v11 a14 14 90 0 1 -14 14 H303 a14 14 90 0 1 -14 -14 V429 H54" fill="#fee090" stroke="#fee090" stroke-width="0"/>
		<rect x="289" y="404" width="54" height="50" fill="none" rx="14" stroke="#f46d43" stroke-width="2"/>
		<line x1="289" y1="429" x2="343" y2="429" stroke="#f46d43" stroke-width="1"/>
		<text x="297" y="421.75" fill="#000" font-family="Verdana" font-size="12">Makes</text>
	</g>
</g>

<!-- Association Writes(3) -->
<g class="page_0_GmGQTbsb diagram_page" visibility="visible">
	<line x1="539" y1="521" x2="420" y2="429" stroke="#f46d43" stroke-width="2"/>
	<text x="468" y="497.41" fill="#4575b4" font-family="Verdana" font-size="12">1,1</text>
	<path d="M316 303 C330.03 383.76 364.69 425.76 420 429" fill="none" stroke="#f46d43" stroke-width="2"/>
	<text x="365" y="401.12" fill="#4575b4" font-family="Verdana" font-size="12">0,N</text>
	<g>
		<path d="M442 404 a14 14 90 0 1 14 14 V429 h-72 V418 a14 14 90 0 1 14 -14" fill="#fdae61" stroke="#fdae61" stroke-width="0"/>
		<path d="M456 429 v11 a14 14 90 0 1 -14 14 H398 a14 14 90 0 1 -14 -14 V429 H72" fill="#fee090" stroke="#fee090" stroke-width="0"/>
		<rect x="384" y="404" width="72" height="50" fill="none" rx="14" stroke="#f46d43" stroke-width="2"/>
		<line x1="384" y1="429" x2="456" y2="429" stroke="#f46d43" stroke-width="1"/>
		<text x="391" y="421.75" fill="#000" font-family="Verdana" font-size="12">Writes(3)</text>
	</g>
</g>

<!-- Association Has -->
<g class="page_0_GmGQTbsb diagram_page" visibility="visible">
	<line x1="197" y1="521" x2="71" y2="521" stroke="#f46d43" stroke-width="2"/>
	<text x="121" y="538" fill="#4575b4" font-family="Verdana" font-size="12">1,1</text>
	<line x1="71" y1="429" x2="71" y2="521" stroke="#f46d43" stroke-width="2"/>
	<text x="76" y="471" fill="#4575b4" font-family="Verdana" font-size="12">0,N</text>
	<g>
		<path d="M76 496 a14 14 90 0 1 14 14 V521 h-38 V510 a14 14 90 0 1 14 -14" fill="#fdae61" stroke="#fdae61" stroke-width="0"/>
		<path d="M90 521 v11 a14 14 90 0 1 -14 14 H66 a14 14 90 0 1 -14 -14 V521 H38" fill="#fee090" stroke="#fee090" stroke-width="0"/>
		<rect x="52" y="496" width="38" height="50" fill="none" rx="14" stroke="#f46d43" stroke-width="2"/>
		<line x1="52" y1="521" x2="90" y2="521" stroke="#f46d43" stroke-width="1"/>
		<text x="60" y="513.75" fill="#000" font-family="Verdana" font-size="12">Has</text>
	</g>
</g>

<!-- Entity BUG REPORT -->
<g class="page_0_GmGQTbsb diagram_page" visibility="visible">
	<g>
		<rect x="271" y="9" width="90" height="25" fill="#abd9e9" stroke="#abd9e9" stroke-width="0" opacity="1"/>
		<rect x="271" y="34" width="90" height="93" fill="#e0f3f8" stroke="#e0f3f8" stroke-width="0" opacity="1"/>
		<rect x="271" y="9" width="90" height="118" fill="none" stroke="#74add1" stroke-width="2" opacity="1"/>
		<line x1="271" y1="34" x2="361" y2="34" stroke="#74add1" stroke-width="1"/>
	</g>
	<text x="276" y="26.75" fill="#000" font-family="Verdana" font-size="12">BUG REPORT</text>
	<text x="276" y="51.8" fill="#000" font-family="Verdana" font-size="12">code_report</text>
	<line x1="276" y1="54" x2="350" y2="54" stroke="#000" stroke-width="1"/>
	<text x="276" y="68.8" fill="#000" font-family="Verdana" font-size="12">url</text>
	<text x="276" y="85.8" fill="#000" font-family="Verdana" font-size="12">comment</text>
	<text x="276" y="102.8" fill="#000" font-family="Verdana" font-size="12">is_important</text>
	<text x="276" y="119.8" fill="#000" font-family="Verdana" font-size="12">is_processed</text>
</g>

<!-- Entity USER REPORT -->
<g class="page_0_GmGQTbsb diagram_page" visibility="visible">
	<g>
		<rect x="490" y="9" width="98" height="25" fill="#abd9e9" stroke="#abd9e9" stroke-width="0" opacity="1"/>
		<rect x="490" y="34" width="98" height="93" fill="#e0f3f8" stroke="#e0f3f8" stroke-width="0" opacity="1"/>
		<rect x="490" y="9" width="98" height="118" fill="none" stroke="#74add1" stroke-width="2" opacity="1"/>
		<line x1="490" y1="34" x2="588" y2="34" stroke="#74add1" stroke-width="1"/>
	</g>
	<text x="496" y="26.75" fill="#000" font-family="Verdana" font-size="12">USER REPORT</text>
	<text x="495" y="51.8" fill="#000" font-family="Verdana" font-size="12">code_report</text>
	<line x1="495" y1="54" x2="569" y2="54" stroke="#000" stroke-width="1"/>
	<text x="495" y="68.8" fill="#000" font-family="Verdana" font-size="12">reported_user</text>
	<text x="495" y="85.8" fill="#000" font-family="Verdana" font-size="12">comment</text>
	<text x="495" y="102.8" fill="#000" font-family="Verdana" font-size="12">is_important</text>
	<text x="495" y="119.8" fill="#000" font-family="Verdana" font-size="12">is_processed</text>
</g>

<!-- Entity STATUS -->
<g class="page_0_GmGQTbsb diagram_page" visibility="visible">
	<g>
		<rect x="29" y="143" width="84" height="25" fill="#abd9e9" stroke="#abd9e9" stroke-width="0" opacity="1"/>
		<rect x="29" y="168" width="84" height="43" fill="#e0f3f8" stroke="#e0f3f8" stroke-width="0" opacity="1"/>
		<rect x="29" y="143" width="84" height="68" fill="none" stroke="#74add1" stroke-width="2" opacity="1"/>
		<line x1="29" y1="168" x2="113" y2="168" stroke="#74add1" stroke-width="1"/>
	</g>
	<text x="47" y="160.75" fill="#000" font-family="Verdana" font-size="12">STATUS</text>
	<text x="34" y="185.8" fill="#000" font-family="Verdana" font-size="12">code_status</text>
	<line x1="34" y1="188" x2="108" y2="188" stroke="#000" stroke-width="1"/>
	<text x="34" y="202.8" fill="#000" font-family="Verdana" font-size="12">is_read</text>
</g>

<!-- Entity USER -->
<g class="page_0_GmGQTbsb diagram_page" visibility="visible">
	<g>
		<rect x="272" y="227" width="88" height="25" fill="#abd9e9" stroke="#abd9e9" stroke-width="0" opacity="1"/>
		<rect x="272" y="252" width="88" height="127" fill="#e0f3f8" stroke="#e0f3f8" stroke-width="0" opacity="1"/>
		<rect x="272" y="227" width="88" height="152" fill="none" stroke="#74add1" stroke-width="2" opacity="1"/>
		<line x1="272" y1="252" x2="360" y2="252" stroke="#74add1" stroke-width="1"/>
	</g>
	<text x="299" y="244.75" fill="#000" font-family="Verdana" font-size="12">USER</text>
	<text x="277" y="269.8" fill="#000" font-family="Verdana" font-size="12">code_user</text>
	<line x1="277" y1="272" x2="340" y2="272" stroke="#000" stroke-width="1"/>
	<text x="277" y="286.8" fill="#000" font-family="Verdana" font-size="12">pseudo</text>
	<text x="277" y="303.8" fill="#000" font-family="Verdana" font-size="12">email</text>
	<text x="277" y="320.8" fill="#000" font-family="Verdana" font-size="12">roles</text>
	<text x="277" y="337.8" fill="#000" font-family="Verdana" font-size="12">password</text>
	<text x="277" y="354.8" fill="#000" font-family="Verdana" font-size="12">picture_path</text>
	<text x="277" y="371.8" fill="#000" font-family="Verdana" font-size="12">is_verified</text>
</g>

<!-- Entity CONVERSATION -->
<g class="page_0_GmGQTbsb diagram_page" visibility="visible">
	<g>
		<rect x="9" y="404" width="124" height="25" fill="#abd9e9" stroke="#abd9e9" stroke-width="0" opacity="1"/>
		<rect x="9" y="429" width="124" height="25" fill="#e0f3f8" stroke="#e0f3f8" stroke-width="0" opacity="1"/>
		<rect x="9" y="404" width="124" height="50" fill="none" stroke="#74add1" stroke-width="2" opacity="1"/>
		<line x1="9" y1="429" x2="133" y2="429" stroke="#74add1" stroke-width="1"/>
	</g>
	<text x="22" y="421.75" fill="#000" font-family="Verdana" font-size="12">CONVERSATION</text>
	<text x="14" y="446.8" fill="#000" font-family="Verdana" font-size="12">code_conversation</text>
	<line x1="14" y1="449" x2="128" y2="449" stroke="#000" stroke-width="1"/>
</g>

<!-- Entity MESSAGE -->
<g class="page_0_GmGQTbsb diagram_page" visibility="visible">
	<g>
		<rect x="147" y="487" width="100" height="25" fill="#abd9e9" stroke="#abd9e9" stroke-width="0" opacity="1"/>
		<rect x="147" y="512" width="100" height="43" fill="#e0f3f8" stroke="#e0f3f8" stroke-width="0" opacity="1"/>
		<rect x="147" y="487" width="100" height="68" fill="none" stroke="#74add1" stroke-width="2" opacity="1"/>
		<line x1="147" y1="512" x2="247" y2="512" stroke="#74add1" stroke-width="1"/>
	</g>
	<text x="167" y="504.75" fill="#000" font-family="Verdana" font-size="12">MESSAGE</text>
	<text x="152" y="529.8" fill="#000" font-family="Verdana" font-size="12">code_message</text>
	<line x1="152" y1="532" x2="242" y2="532" stroke="#000" stroke-width="1"/>
	<text x="152" y="546.8" fill="#000" font-family="Verdana" font-size="12">message</text>
</g>

<!-- Entity BAN -->
<g class="page_0_GmGQTbsb diagram_page" visibility="visible">
	<g>
		<rect x="281" y="479" width="70" height="25" fill="#abd9e9" stroke="#abd9e9" stroke-width="0" opacity="1"/>
		<rect x="281" y="504" width="70" height="59" fill="#e0f3f8" stroke="#e0f3f8" stroke-width="0" opacity="1"/>
		<rect x="281" y="479" width="70" height="84" fill="none" stroke="#74add1" stroke-width="2" opacity="1"/>
		<line x1="281" y1="504" x2="351" y2="504" stroke="#74add1" stroke-width="1"/>
	</g>
	<text x="303" y="496.75" fill="#000" font-family="Verdana" font-size="12">BAN</text>
	<text x="286" y="521.8" fill="#000" font-family="Verdana" font-size="12">code_ban</text>
	<line x1="286" y1="524" x2="345" y2="524" stroke="#000" stroke-width="1"/>
	<text x="286" y="538.8" fill="#000" font-family="Verdana" font-size="12">email</text>
	<text x="286" y="555.8" fill="#000" font-family="Verdana" font-size="12">comment</text>
</g>

<!-- Entity PATCH NOTE -->
<g class="page_0_GmGQTbsb diagram_page" visibility="visible">
	<g>
		<rect x="494" y="479" width="90" height="25" fill="#abd9e9" stroke="#abd9e9" stroke-width="0" opacity="1"/>
		<rect x="494" y="504" width="90" height="59" fill="#e0f3f8" stroke="#e0f3f8" stroke-width="0" opacity="1"/>
		<rect x="494" y="479" width="90" height="84" fill="none" stroke="#74add1" stroke-width="2" opacity="1"/>
		<line x1="494" y1="504" x2="584" y2="504" stroke="#74add1" stroke-width="1"/>
	</g>
	<text x="500" y="496.75" fill="#000" font-family="Verdana" font-size="12">PATCH NOTE</text>
	<text x="499" y="521.8" fill="#000" font-family="Verdana" font-size="12">code_note</text>
	<line x1="499" y1="524" x2="563" y2="524" stroke="#000" stroke-width="1"/>
	<text x="499" y="538.8" fill="#000" font-family="Verdana" font-size="12">note</text>
	<text x="499" y="555.8" fill="#000" font-family="Verdana" font-size="12">date</text>
</g>
</svg>